RBDS022runT35_grf
version=1
nRows=30
nColumns=19
inDegrees=no
endheader
time	ground_force_r_vx	ground_force_r_vy	ground_force_r_vz	ground_force_r_px	ground_force_r_py	ground_force_r_pz	ground_force_r_mx	ground_force_r_my	ground_force_r_mz	ground_force_l_vx	ground_force_l_vy	ground_force_l_vz	ground_force_l_px	ground_force_l_py	ground_force_l_pz	ground_force_l_mx	ground_force_l_my	ground_force_l_mz
      0.00000000	    -61.34496823	    168.57969088	    -18.83290021	      2.32244506	      0.00000000	      1.02391497	     -0.00000000	      0.36083333	      0.00000000	      0.00000000	      0.00000000	      0.00000000	      0.00000000	      0.00000000	      0.00000000	      0.00000000	      0.00000000	      0.00000000
      0.00100000	    -64.78091444	    201.38543832	    -19.63714170	      2.32208384	      0.00000000	      1.02362061	     -0.00000000	      0.69049825	      0.00000000	      0.00000000	      0.00000000	      0.00000000	      0.00000000	      0.00000000	      0.00000000	      0.00000000	      0.00000000	      0.00000000
      0.00200000	    -68.21686066	    234.19118576	    -20.44138318	      2.32172262	      0.00000000	      1.02332626	      0.00000000	      1.02016317	      0.00000000	      0.00000000	      0.00000000	      0.00000000	      0.00000000	      0.00000000	      0.00000000	      0.00000000	      0.00000000	      0.00000000
      0.00300000	    -71.65280687	    266.99693320	    -21.24562467	      2.32136140	      0.00000000	      1.02303191	      0.00000000	      1.34982810	      0.00000000	      0.00000000	      0.00000000	      0.00000000	      0.00000000	      0.00000000	      0.00000000	      0.00000000	      0.00000000	      0.00000000
      0.00400000	    -75.10282266	    299.68393188	    -22.00083885	      2.32099511	      0.00000000	      1.02273722	      0.00000000	      1.67331177	      0.00000000	      0.00000000	      0.00000000	      0.00000000	      0.00000000	      0.00000000	      0.00000000	      0.00000000	      0.00000000	      0.00000000
      0.00500000	    -78.55987323	    332.31155616	    -22.73153938	      2.32062628	      0.00000000	      1.02244237	      0.00000000	      1.99370482	      0.00000000	      0.00000000	      0.00000000	      0.00000000	      0.00000000	      0.00000000	      0.00000000	      0.00000000	      0.00000000	      0.00000000
      0.00600000	    -82.01692380	    364.93918045	    -23.46223991	      2.32025745	      0.00000000	      1.02214752	      0.00000000	      2.31409788	      0.00000000	      0.00000000	      0.00000000	      0.00000000	      0.00000000	      0.00000000	      0.00000000	      0.00000000	      0.00000000	      0.00000000
      0.00700000	    -85.48453646	    397.40626380	    -24.16394234	      2.31987994	      0.00000000	      1.02185299	      0.00000000	      2.63204611	      0.00000000	      0.00000000	      0.00000000	      0.00000000	      0.00000000	      0.00000000	      0.00000000	      0.00000000	      0.00000000	      0.00000000
      0.00800000	    -88.97327329	    429.55226530	    -24.80764854	      2.31948509	      0.00000000	      1.02155910	      0.00000000	      2.94510471	      0.00000000	      0.00000000	      0.00000000	      0.00000000	      0.00000000	      0.00000000	      0.00000000	      0.00000000	      0.00000000	      0.00000000
      0.00900000	    -92.46201012	    461.69826680	    -25.45135475	      2.31909023	      0.00000000	      1.02126520	      0.00000000	      3.25816331	      0.00000000	      0.00000000	      0.00000000	      0.00000000	      0.00000000	      0.00000000	      0.00000000	      0.00000000	      0.00000000	      0.00000000
      0.01000000	    -95.95074694	    493.84426830	    -26.09506096	      2.31869538	      0.00000000	      1.02097131	      0.00000000	      3.57122191	      0.00000000	      0.00000000	      0.00000000	      0.00000000	      0.00000000	      0.00000000	      0.00000000	      0.00000000	      0.00000000	      0.00000000
      0.01100000	    -99.47316963	    525.22729638	    -26.63995421	      2.31825548	      0.00000000	      1.02067988	      0.00000000	      3.87860716	      0.00000000	      0.00000000	      0.00000000	      0.00000000	      0.00000000	      0.00000000	      0.00000000	      0.00000000	      0.00000000	      0.00000000
      0.01200000	   -102.99559232	    556.61032446	    -27.18484745	      2.31781559	      0.00000000	      1.02038846	      0.00000000	      4.18599241	      0.00000000	      0.00000000	      0.00000000	      0.00000000	      0.00000000	      0.00000000	      0.00000000	      0.00000000	      0.00000000	      0.00000000
      0.01300000	   -106.51801501	    587.99335254	    -27.72974069	      2.31737570	      0.00000000	      1.02009704	      0.00000000	      4.49337766	      0.00000000	      0.00000000	      0.00000000	      0.00000000	      0.00000000	      0.00000000	      0.00000000	      0.00000000	      0.00000000	      0.00000000
      0.01400000	   -110.05716069	    618.69963180	    -28.20241773	      2.31689310	      0.00000000	      1.01980833	      0.00000000	      4.79781757	      0.00000000	      0.00000000	      0.00000000	      0.00000000	      0.00000000	      0.00000000	      0.00000000	      0.00000000	      0.00000000	      0.00000000
      0.01500000	   -113.60466787	    649.06753665	    -28.63898666	      2.31638915	      0.00000000	      1.01952098	      0.00000000	      5.10078480	      0.00000000	      0.00000000	      0.00000000	      0.00000000	      0.00000000	      0.00000000	      0.00000000	      0.00000000	      0.00000000	      0.00000000
      0.01600000	   -117.15217505	    679.43544151	    -29.07555559	      2.31588521	      0.00000000	      1.01923363	      0.00000000	      5.40375204	      0.00000000	      0.00000000	      0.00000000	      0.00000000	      0.00000000	      0.00000000	      0.00000000	      0.00000000	      0.00000000	      0.00000000
      0.01700000	   -120.70121322	    709.39240415	    -29.47377991	      2.31535377	      0.00000000	      1.01894820	      0.00000000	      5.70549779	      0.00000000	      0.00000000	      0.00000000	      0.00000000	      0.00000000	      0.00000000	      0.00000000	      0.00000000	      0.00000000	      0.00000000
      0.01800000	   -124.25331340	    738.52748238	    -29.79531504	      2.31476736	      0.00000000	      1.01866660	      0.00000000	      6.00480058	      0.00000000	      0.00000000	      0.00000000	      0.00000000	      0.00000000	      0.00000000	      0.00000000	      0.00000000	      0.00000000	      0.00000000
      0.01900000	   -127.80541357	    767.66256061	    -30.11685016	      2.31418095	      0.00000000	      1.01838500	      0.00000000	      6.30410337	      0.00000000	      0.00000000	      0.00000000	      0.00000000	      0.00000000	      0.00000000	      0.00000000	      0.00000000	      0.00000000	      0.00000000
      0.02000000	   -131.35751374	    796.79763884	    -30.43838529	      2.31359453	      0.00000000	      1.01810340	      0.00000000	      6.60340616	      0.00000000	      0.00000000	      0.00000000	      0.00000000	      0.00000000	      0.00000000	      0.00000000	      0.00000000	      0.00000000	      0.00000000
      0.02100000	   -134.88136959	    824.51985756	    -30.64124626	      2.31290842	      0.00000000	      1.01782930	      0.00000000	      6.89924295	      0.00000000	      0.00000000	      0.00000000	      0.00000000	      0.00000000	      0.00000000	      0.00000000	      0.00000000	      0.00000000	      0.00000000
      0.02200000	   -138.40522543	    852.24207628	    -30.84410723	      2.31222231	      0.00000000	      1.01755519	      0.00000000	      7.19507973	      0.00000000	      0.00000000	      0.00000000	      0.00000000	      0.00000000	      0.00000000	      0.00000000	      0.00000000	      0.00000000	      0.00000000
      0.02300000	   -141.92908128	    879.96429500	    -31.04696821	      2.31153620	      0.00000000	      1.01728109	      0.00000000	      7.49091652	      0.00000000	      0.00000000	      0.00000000	      0.00000000	      0.00000000	      0.00000000	      0.00000000	      0.00000000	      0.00000000	      0.00000000
      0.02400000	   -145.40427405	    906.65047910	    -31.17035515	      2.31077326	      0.00000000	      1.01701317	      0.00000000	      7.78420196	      0.00000000	      0.00000000	      0.00000000	      0.00000000	      0.00000000	      0.00000000	      0.00000000	      0.00000000	      0.00000000	      0.00000000
      0.02500000	   -148.85513529	    932.81864589	    -31.25400506	      2.30997191	      0.00000000	      1.01674835	      0.00000000	      8.07621174	      0.00000000	      0.00000000	      0.00000000	      0.00000000	      0.00000000	      0.00000000	      0.00000000	      0.00000000	      0.00000000	      0.00000000
      0.02600000	   -152.30599653	    958.98681268	    -31.33765498	      2.30917056	      0.00000000	      1.01648353	      0.00000000	      8.36822151	      0.00000000	      0.00000000	      0.00000000	      0.00000000	      0.00000000	      0.00000000	      0.00000000	      0.00000000	      0.00000000	      0.00000000
      0.02700000	   -155.71407978	    984.60259856	    -31.38237122	      2.30832634	      0.00000000	      1.01622241	      0.00000000	      8.65866271	      0.00000000	      0.00000000	      0.00000000	      0.00000000	      0.00000000	      0.00000000	      0.00000000	      0.00000000	      0.00000000	      0.00000000
      0.02800000	   -159.03660703	   1009.11362262	    -31.34922011	      2.30739637	      0.00000000	      1.01596866	      0.00000000	      8.94596677	      0.00000000	      0.00000000	      0.00000000	      0.00000000	      0.00000000	      0.00000000	      0.00000000	      0.00000000	      0.00000000	      0.00000000
      0.02900000	   -162.35913428	   1033.62464668	    -31.31606900	      2.30646640	      0.00000000	      1.01571492	      0.00000000	      9.23327083	      0.00000000	      0.00000000	      0.00000000	      0.00000000	      0.00000000	      0.00000000	      0.00000000	      0.00000000	      0.00000000	      0.00000000
